# xmcd
#
# Track frame offsets:
#  150
#  16143
#  32682
#  46575
#  62921
#
# Disc length: 1063 seconds
#
# Revision: 0
# Processed by: cddbd v1.5.2PL0 Copyright (c) Steve Scherf et al.
# Submitted via: AltoMP3_Maker 3.0
#
DISCID=32042505
DTITLE=Beyond The Red - Demo 2010
DYEAR=1900
DGENRE=
TTITLE0=Live Born
TTITLE1=TrTitles and Waves
TTITLE2=Pesimist
TTITLE3=Personalty 1
TTITLE4=Whiskey and Trouble
EXTD=
EXTT0=
EXTT1=
EXTT2=
EXTT3=
EXTT4=
PLAYORDER=
